PathFileType	4	(X/Y/Z)	C:/Users/beibeiliu/ov580/test_trc/User1\sequence.16_training_dense_right.trc
DataRate	CameraRate	NumFrames	NumMarkers	Units	OrigDataRate	OrigDataStartFrame	OrigNumFrames
120	120	10	19	mm	120	168	268
Frame#	Time	ThumbCMC			ThumbMCP			ThumbIP			ThumbTip			IndexMCP			IndexPIP			IndexTip			MiddleMCP			MiddlePIP			MiddleTip			RingMCP			RingPIP			RingTip			PinkyMCP			PinkyPIP			PinkyTip			BackHand1			BackHand2			BackHand3	
		X0	Y0	Z0	X1	Y1	Z1	X2	Y2	Z2	X3	Y3	Z3	X4	Y4	Z4	X5	Y5	Z5	X6	Y6	Z6	X7	Y7	Z7	X8	Y8	Z8	X9	Y9	Z9	X10	Y10	Z10	X11	Y11	Z11	X12	Y12	Z12	X13	Y13	Z13	X14	Y14	Z14	X15	Y15	Z15	X16	Y16	Z16	X17	Y17	Z17	X18	Y18	Z18	
167	1.39167	157.456	90.3111	42.4688	138.192	89.7904	20.6708	125.325	99.1403	-6.00018	112.264	102.283	-15.4009	161.492	59.2295	-35.8205	139.142	36.7549	-29.0362	139.379	44.4008	9.44641	176.162	37.5603	-33.946	148.391	19.8339	-23.5357	145.368	30.7321	17.4847	190.434	17.2474	-24.3432	157.307	5.69416	-15.985	157.068	17.3551	14.6753	218.684	8.655	-2.29406	223.336	0.163832	-17.04	238.628	-7.81507	-33.0278	216.16	48.5847	24.0419	218.093	54.3005	59.8817	199.665	80.6248	34.3184	
168	1.4	168.485	97.3024	43.9175	150.834	99.7013	18.9964	141.271	109.23	-2.40241	130.592	119.883	-15.961	164.966	64.6955	-34.0016	135.815	45.6824	-24.7595	136.993	53.6791	8.0419	173.419	39.6496	-33.246	140.443	29.2583	-23.8989	140.355	37.8612	15.1884	180.874	14.5264	-24.6301	145.476	10.939	-13.7081	148.656	27.9545	15.6246	207.373	-2.44728	-5.42734	209.178	-9.85529	-20.864	222.619	-20.4048	-33.7243	216.535	41.0931	24.4785	218.622	48.4784	54.8416	205.581	75.2049	35.373	
169	1.40833	178.92	99.589	43.0496	161.321	110.904	19.9897	153.421	120.395	-1.42826	143.918	137.015	-13.8319	162.76	63.6693	-35.8713	135.26	56.5921	-27.0838	134.762	62.8456	6.80275	169.562	43.0502	-33.5684	133.471	40.0269	-20.3	137.019	48.8369	17.6847	173.648	19.9259	-25.1106	138.694	20.6853	-15.2908	143.318	35.3398	15.5776	197.385	-3.29598	-6.42004	197.705	-11.8806	-17.0388	208.566	-24.5502	-39.7958	215.155	36.0483	21.5141	215.954	46.6255	58.1336	208.579	73.4632	34.0718	
170	1.41667	185.083	100.167	38.783	168.406	117.327	19.8564	162.606	129.909	-5.26542	155.166	139.958	-14.2057	167.295	70.443	-35.0594	136.449	62.7337	-27.5276	138.632	70.1769	11.5083	167.122	43.7321	-32.6852	132.001	48.2243	-18.5926	137.716	55.0461	19.316	169.826	25.7193	-26.4502	137.834	26.4393	-19.6278	138.666	39.0414	15.195	191.441	0.900661	-6.45266	190.704	-11.4554	-22.9917	198.542	-27.1039	-40.0393	210.852	34.7567	20.5769	216.731	43.884	55.5268	211.228	71.3414	34.0052	
171	1.425	187.672	105.206	38.1396	172.505	116.342	20.284	166.581	129.259	-5.27917	160.64	145.436	-14.8884	165.781	73.9469	-36.241	134.643	67.3725	-25.5041	138.132	73.9709	10.2924	162.951	47.8216	-33.8837	131.495	49.2612	-17.7962	135.585	58.8887	20.0181	168.645	24.8173	-25.3563	134.309	33.6398	-17.8171	137.379	42.9735	16.3532	188.41	1.64705	-9.07747	186.319	-7.02539	-20.1293	193.193	-22.6598	-42.2937	210.055	37.8667	21.549	215.403	41.7772	53.4376	213.6	76.0069	32.3021	
172	1.43333	186.668	104.066	39.1164	170.329	118.399	20.2249	163.656	134.827	-3.19958	158.437	148.239	-14.766	167.034	77.9613	-35.1628	133.555	72.934	-24.7352	137.734	77.1377	12.1078	164.396	53.1593	-33.9634	130.944	55.9401	-18.7804	135.341	59.6308	17.9169	166.769	29.0921	-27.1978	135.936	31.5095	-19.4199	136.926	47.0033	12.4408	187.734	3.50274	-4.36671	185.483	-7.16987	-22.1342	190.322	-16.0927	-44.5616	210.322	39.0139	20.4962	215.676	45.2238	53.3788	213.806	73.81	33.1061	
173	1.44167	179.773	104.001	43.0651	160.549	114.45	22.4835	151.912	131.305	0.0471024	143.475	145.955	-9.9026	162.028	78.7486	-35.1399	133.807	66.6295	-25.319	137.751	70.093	11.8228	166.554	50.7511	-33.3782	133.074	50.7579	-20.6255	137.62	58.1511	18.7544	172.985	30.6073	-26.2447	139.929	32.09	-18.9349	141.706	43.1331	14.9601	194.193	8.52483	-6.23238	192.263	2.66547	-23.4129	200.316	-7.28062	-45.0185	211.666	45.8482	23.6609	219.249	50.4059	56.7953	209.979	84.3848	32.9475	
174	1.45	165.193	103.497	46.8449	144.085	107.152	22.2557	131.833	117.584	6.12076	118.143	132.046	-3.3278	158.341	77.5366	-34.3523	133.24	59.885	-25.7242	137.316	63.2822	12.3938	171.89	51.95	-32.9194	140.76	40.9468	-23.0399	137.921	51.4246	16.6807	181.651	33.4685	-27.2876	147.09	24.5168	-16.2661	148.898	33.6418	15.6637	206.566	19.1971	-10.3902	206.564	11.2937	-26.1516	214.713	5.55218	-49.9398	216.602	57.653	22.7094	219.485	58.8218	58.1977	201.925	90.2235	37.2386	
175	1.45833	151.628	95.5606	46.4684	129.282	93.0904	24.4381	112.725	102.612	7.46476	99.0694	106.085	-1.61502	156.093	73.8894	-32.7861	136.271	47.3906	-26.7594	136.304	53.4329	10.7228	172.499	55.5229	-33.7699	144.384	32.3099	-21.2394	147.399	36.7624	14.8068	188.158	36.8391	-29.3498	160.172	19.9483	-20.0985	157.249	26.6205	9.44844	219.826	31.1665	-14.4394	221.622	26.6654	-30.7271	234.424	23.6207	-47.747	216.899	67.501	25.213	214.084	71.3511	58.69	193.332	95.8487	36.649	
176	1.46667	144.457	87.2987	46.931	122.648	81.5491	25.6676	102.269	87.855	7.94475	87.936	88.5222	-3.16604	154.307	66.5654	-34.7082	138.107	39.3351	-28.3082	137.49	41.6475	6.34524	173.643	51.2912	-35.9091	152.667	26.0205	-23.6665	153.175	31.2402	14.6394	190.218	42.2087	-32.6003	170.49	19.2884	-26.7256	165.292	22.8008	10.096	224.858	43.2112	-13.5063	232.412	36.0293	-26.7259	243.884	37.1046	-45.6475	211.986	74.171	19.7019	211.878	78.1914	58.2928	182.365	94.8908	36.4684	
